<?xml version="1.0" standalone="no"?>
<!DOCTYPE svg PUBLIC "-//W3C//DTD SVG 20010904//EN"
 "http://www.w3.org/TR/2001/REC-SVG-20010904/DTD/svg10.dtd">
<svg version="1.0" xmlns="http://www.w3.org/2000/svg"
 width="640.000000pt" height="640.000000pt" viewBox="0 0 640.000000 640.000000"
 preserveAspectRatio="xMidYMid meet">
<metadata>
Created by potrace 1.11, written by Peter Selinger 2001-2013
</metadata>
<g transform="translate(0.000000,640.000000) scale(0.100000,-0.100000)"
fill="#000000" stroke="none">
<path d="M797 6292 c-42 -42 -50 -57 -63 -115 -15 -76 -13 -229 5 -235 6 -2
11 -11 11 -20 0 -9 14 -44 30 -76 17 -32 30 -64 30 -71 0 -7 6 -18 14 -24 8
-7 18 -26 21 -42 4 -17 13 -33 21 -36 8 -3 14 -13 14 -23 0 -10 9 -21 20 -25
11 -3 30 -21 42 -38 34 -49 88 -96 140 -123 47 -24 88 -66 88 -91 0 -8 9 -33
19 -56 36 -79 68 -162 86 -217 9 -30 25 -73 34 -95 10 -22 26 -65 36 -95 9
-30 30 -82 45 -115 15 -33 30 -77 34 -98 6 -34 24 -78 57 -139 5 -10 9 -26 9
-35 0 -10 7 -30 14 -45 24 -46 23 -73 -4 -101 -14 -15 -29 -27 -35 -27 -5 0
-23 -11 -39 -25 -16 -14 -33 -25 -37 -25 -7 0 -85 -66 -100 -85 -4 -5 -26 -31
-48 -56 -23 -25 -41 -51 -41 -56 0 -5 -16 -23 -35 -40 -19 -17 -35 -40 -35
-51 0 -11 -8 -30 -19 -43 -24 -32 -51 -85 -46 -91 3 -3 -4 -35 -16 -72 -19
-61 -21 -85 -17 -269 3 -162 7 -209 20 -237 9 -19 29 -74 43 -122 14 -48 30
-90 34 -93 5 -2 11 -18 14 -34 16 -77 135 -231 178 -231 33 0 238 -113 280
-153 21 -21 39 -42 39 -47 0 -5 14 -17 30 -27 44 -26 46 -52 11 -126 -17 -36
-31 -67 -31 -70 0 -3 -31 -71 -70 -151 -39 -80 -70 -148 -70 -152 0 -12 -45
-99 -52 -102 -5 -2 -8 -10 -8 -18 0 -7 -20 -57 -45 -111 -26 -54 -50 -107 -55
-118 -4 -11 -22 -50 -39 -86 -17 -36 -31 -68 -31 -72 0 -4 -32 -72 -70 -152
-39 -80 -70 -147 -70 -150 0 -2 -17 -41 -39 -87 -21 -46 -49 -105 -61 -133
-12 -27 -40 -87 -61 -132 -22 -45 -39 -84 -39 -87 0 -3 -15 -38 -34 -78 -36
-78 -68 -147 -148 -323 -27 -60 -59 -127 -70 -148 -23 -44 -19 -68 11 -60 15
4 21 1 21 -12 0 -12 5 -15 23 -9 63 19 72 31 142 181 37 81 88 191 113 243 49
106 79 170 112 245 13 28 46 100 75 160 50 107 122 262 173 375 13 30 42 91
63 134 22 44 39 83 39 87 0 5 31 73 68 151 103 215 219 470 227 496 3 12 11
20 16 17 12 -8 12 -112 -1 -120 -5 -3 -7 -19 -3 -35 4 -20 -1 -39 -13 -57 -31
-47 -43 -67 -50 -86 -3 -9 -10 -17 -15 -17 -5 0 -9 -7 -9 -15 0 -17 -26 -101
-41 -130 -11 -22 -6 -252 6 -318 5 -26 12 -37 25 -37 15 0 19 -12 25 -61 5
-40 16 -74 32 -98 23 -34 45 -73 133 -240 47 -89 86 -135 202 -240 89 -81 115
-99 188 -130 14 -6 41 -21 60 -32 20 -12 66 -25 110 -31 92 -11 489 -9 512 3
28 15 245 11 276 -5 27 -14 72 -67 72 -85 0 -5 8 -12 18 -16 9 -3 31 -27 48
-53 34 -51 104 -171 104 -177 0 -2 30 -57 67 -122 37 -65 76 -137 87 -160 16
-32 27 -43 44 -43 12 0 22 2 22 4 0 23 -44 137 -60 153 -11 13 -26 54 -36 100
-9 43 -20 86 -26 96 -48 91 -85 466 -45 467 16 1 72 52 80 74 4 10 16 20 27
23 11 3 20 9 20 13 0 5 15 18 33 29 18 11 44 30 57 42 14 11 44 34 67 50 23
16 45 38 48 49 3 11 10 20 15 20 4 0 27 28 50 61 23 34 53 72 66 84 13 12 24
27 24 33 0 6 10 23 23 39 13 15 33 62 46 103 12 41 29 88 37 104 35 68 43 314
15 416 -21 72 -100 240 -113 240 -5 0 -8 9 -8 19 0 11 -3 21 -7 23 -5 2 -30
34 -58 72 -73 100 -142 173 -205 215 -30 20 -68 51 -83 69 -16 17 -33 32 -39
32 -15 0 -71 64 -93 107 -24 46 -72 96 -85 88 -30 -19 13 -171 55 -199 14 -9
25 -21 25 -26 0 -29 141 -200 165 -200 5 0 21 -14 34 -31 13 -16 37 -37 53
-45 15 -8 28 -21 28 -30 0 -8 7 -17 15 -20 8 -4 15 -10 15 -16 0 -15 50 -117
61 -123 5 -4 9 -14 9 -23 0 -10 9 -35 20 -57 18 -35 20 -59 20 -206 0 -220
-13 -289 -65 -344 -41 -43 -65 -75 -65 -87 0 -7 -17 -29 -37 -49 -21 -20 -51
-54 -68 -74 -16 -21 -36 -44 -42 -51 -7 -7 -13 -16 -13 -19 0 -12 -44 -44 -98
-72 -29 -15 -62 -42 -75 -60 -13 -20 -34 -35 -52 -39 -16 -3 -46 -16 -65 -29
-19 -13 -57 -29 -84 -35 -27 -6 -61 -19 -75 -29 -14 -10 -46 -21 -71 -24 -25
-3 -67 -8 -93 -12 -57 -8 -506 -12 -621 -6 -62 4 -85 9 -110 28 -17 13 -43 29
-58 35 -16 7 -28 16 -28 20 0 4 -7 8 -15 8 -7 0 -18 6 -22 13 -4 7 -25 21 -46
32 -21 11 -49 32 -63 48 -13 15 -30 27 -38 27 -7 0 -16 9 -19 21 -3 11 -14 23
-25 26 -11 2 -25 16 -31 29 -6 13 -17 24 -25 24 -8 0 -18 9 -21 20 -3 11 -10
20 -14 20 -4 0 -15 20 -25 45 -11 25 -23 45 -28 45 -4 0 -8 6 -8 13 0 8 -9 22
-20 32 -11 10 -20 23 -20 30 0 14 -30 78 -40 85 -20 15 -30 59 -36 160 l-7
112 38 73 c21 41 48 84 61 97 13 13 35 34 50 48 14 14 39 52 56 85 l30 60 -6
158 c-4 105 -12 176 -22 209 -17 49 -17 50 11 109 16 32 32 59 37 59 4 0 21
-26 36 -58 16 -32 38 -71 50 -87 20 -29 57 -208 46 -226 -2 -4 0 -10 6 -14 5
-3 10 -26 10 -49 0 -27 6 -48 15 -56 18 -15 18 -16 33 35 22 79 30 191 17 252
-7 34 -34 78 -70 111 -19 19 -35 39 -35 45 0 7 -11 24 -24 38 -30 32 -46 63
-46 87 0 23 19 68 111 261 38 79 69 147 69 152 0 10 79 10 124 0 23 -5 39 -22
75 -81 l46 -75 -3 -358 -3 -358 23 -32 c12 -18 26 -36 30 -42 57 -73 98 -130
98 -138 0 -5 11 -18 25 -29 14 -11 25 -24 25 -29 0 -6 6 -17 13 -24 17 -20 22
-26 107 -140 41 -55 80 -103 85 -107 6 -4 10 -11 10 -16 0 -5 23 -36 52 -68
28 -33 101 -120 162 -194 157 -190 154 -188 158 -170 2 9 -6 38 -19 65 -12 28
-23 52 -23 55 -3 8 -35 82 -61 138 -13 29 -24 55 -24 59 0 3 -15 38 -34 77
-19 39 -38 85 -44 101 -13 38 -85 203 -118 272 -14 29 -27 61 -29 71 -2 11
-20 50 -40 87 -20 37 -34 70 -31 72 3 3 -11 36 -30 73 -19 38 -37 81 -40 96
-3 15 -21 55 -40 89 -18 34 -34 70 -34 79 0 20 -45 112 -60 121 -5 3 -10 19
-10 34 0 33 -25 88 -52 114 -11 11 -18 32 -18 57 0 21 -6 45 -13 52 -37 38
-57 74 -57 101 0 17 -11 45 -26 65 -15 19 -32 53 -39 76 -7 22 -24 65 -39 95
-32 68 -38 49 133 414 72 154 131 281 131 284 0 15 83 173 91 173 5 0 20 -18
34 -40 14 -22 29 -40 33 -40 4 0 16 -15 27 -32 10 -18 32 -51 49 -73 37 -48
66 -98 66 -116 0 -7 7 -20 16 -30 18 -19 56 -189 46 -204 -7 -9 -20 -78 -58
-300 -16 -94 -13 -224 7 -267 24 -55 100 -171 119 -182 8 -5 33 -27 54 -48 22
-21 47 -38 58 -38 10 0 18 -4 18 -10 0 -5 15 -10 34 -10 18 0 45 -9 59 -20 31
-24 43 -25 51 -3 9 23 -37 68 -99 97 -61 28 -162 125 -170 163 -4 15 -11 38
-17 50 -7 13 -9 64 -6 130 5 88 10 119 31 165 14 31 31 59 36 63 6 3 11 13 11
22 0 9 9 26 20 38 14 15 22 44 28 100 5 44 7 84 5 88 -3 5 -6 28 -8 51 -4 62
-92 238 -172 344 -40 52 -118 132 -130 132 -4 0 -21 16 -37 35 -16 19 -35 35
-43 35 -15 0 -17 22 -4 48 5 9 42 89 82 177 40 88 99 216 132 284 32 68 67
145 77 170 10 25 43 98 73 161 30 63 70 149 89 190 20 41 58 125 87 186 l51
112 -12 83 -13 83 -26 -55 c-15 -30 -38 -79 -52 -109 -14 -30 -60 -129 -102
-220 -42 -91 -108 -232 -145 -315 -37 -82 -74 -163 -82 -180 -47 -95 -158
-335 -158 -342 0 -3 -16 -40 -37 -82 -20 -42 -41 -86 -46 -98 -11 -24 -27 -22
-27 3 0 9 13 43 29 77 16 34 45 98 65 142 20 44 49 107 65 140 48 99 88 188
96 215 4 14 11 27 14 30 4 3 15 25 25 50 11 25 39 88 63 140 24 52 50 109 58
125 42 92 85 186 105 230 12 28 39 86 60 130 51 109 72 164 64 176 -8 13 -34
-8 -34 -27 0 -8 -13 -40 -29 -72 -16 -31 -40 -82 -54 -112 -14 -30 -41 -89
-61 -131 -20 -41 -36 -78 -36 -81 0 -3 -27 -63 -60 -132 -33 -70 -60 -129 -60
-132 0 -4 -20 -48 -44 -98 -44 -91 -80 -170 -109 -236 -8 -19 -33 -73 -54
-120 -22 -47 -45 -98 -52 -115 -45 -114 -111 -217 -111 -173 0 8 -33 22 -88
37 -48 13 -97 30 -109 37 -12 8 -47 14 -78 14 -50 0 -56 -2 -65 -26 -6 -14
-10 -27 -10 -29 0 -2 19 -6 43 -10 23 -4 65 -18 94 -30 28 -13 54 -21 57 -18
3 3 8 -2 12 -11 3 -9 16 -16 29 -16 12 0 33 -9 46 -21 13 -11 30 -24 37 -28
15 -8 10 -22 -70 -191 -35 -73 -82 -175 -108 -235 -10 -22 -34 -74 -53 -115
-19 -41 -46 -101 -60 -132 -25 -55 -47 -75 -47 -43 0 8 -13 36 -30 62 -16 26
-30 57 -30 69 0 11 -11 37 -25 57 -13 20 -31 56 -39 79 -8 24 -35 88 -61 143
-26 55 -56 120 -67 145 -11 25 -38 82 -59 126 -21 45 -39 84 -39 88 0 4 -17
44 -39 89 -45 96 -68 147 -146 322 -32 72 -70 157 -86 190 -81 172 -197 429
-226 498 -15 36 -16 37 -72 38 -66 0 -205 9 -209 13 -10 11 15 38 39 43 16 3
32 10 35 14 3 5 22 9 43 9 75 0 97 9 120 52 46 88 13 290 -67 398 -18 24 -32
50 -32 57 0 7 -4 13 -9 13 -5 0 -12 11 -15 25 -4 14 -13 25 -21 25 -8 0 -21
16 -29 35 -8 19 -20 35 -26 35 -6 0 -29 15 -52 33 -37 29 -46 32 -122 35 l-81
2 -48 -48z m1785 -1986 c-4 -24 -63 -154 -172 -381 -16 -33 -59 -125 -95 -205
-66 -144 -80 -169 -90 -158 -6 5 15 55 77 188 22 47 49 105 61 130 11 25 29
62 39 83 11 20 16 37 13 37 -4 0 1 7 9 16 9 8 16 22 16 30 0 8 13 41 29 72 47
94 91 191 91 203 0 6 6 9 13 6 6 -2 11 -12 9 -21z m-972 -68 c7 -18 21 -52 31
-75 11 -24 19 -45 19 -48 0 -5 84 -222 105 -270 7 -16 20 -52 30 -80 10 -27
23 -63 30 -80 19 -46 150 -384 169 -435 18 -51 14 -75 -28 -158 -14 -28 -26
-54 -27 -57 0 -2 -22 -52 -50 -110 -27 -58 -49 -110 -49 -115 0 -6 -4 -10 -9
-10 -5 0 -11 -14 -15 -32 l-6 -32 -46 49 c-25 28 -59 69 -76 93 -17 23 -36 42
-42 42 -6 0 -22 16 -35 35 -13 19 -29 35 -35 35 -7 0 -21 12 -33 28 -11 15
-41 37 -67 50 -25 13 -51 32 -56 43 -6 10 -19 19 -30 19 -24 0 -87 36 -121 69
-14 15 -35 53 -47 87 -20 54 -22 81 -22 245 1 143 4 193 17 224 8 22 18 57 20
78 3 20 9 37 14 37 5 0 9 8 9 19 0 10 7 25 16 32 21 17 74 110 74 129 0 18 53
80 68 80 11 0 75 55 125 108 17 17 36 32 43 32 6 0 17 -15 24 -32z m460 -1047
c0 -19 -90 -201 -100 -201 -15 0 -13 9 26 88 19 41 39 85 44 98 9 23 30 34 30
15z m-160 -343 c0 -22 -74 -162 -77 -146 -2 9 10 44 26 77 17 33 31 68 31 76
0 9 5 13 10 10 6 -3 10 -11 10 -17z m-176 -380 c-6 -21 -30 -76 -118 -263 -18
-38 -44 -94 -56 -122 -13 -29 -27 -53 -32 -53 -12 0 -11 3 17 58 14 28 25 55
25 61 0 6 5 11 12 11 6 0 9 3 6 6 -6 5 16 59 82 199 16 33 34 75 42 93 15 36
33 44 22 10z m-220 -475 c-4 -16 -19 -53 -35 -83 -15 -30 -37 -79 -49 -107
-13 -29 -27 -53 -32 -53 -5 0 -8 3 -6 8 5 9 49 104 90 195 33 72 42 83 32 40z
m-148 -325 c-3 -17 -14 -40 -24 -51 -9 -10 -15 -20 -13 -21 1 0 -9 -27 -23
-58 -14 -31 -26 -63 -27 -70 0 -9 -2 -9 -5 -1 -3 6 9 45 26 85 66 155 78 176
66 116z m-125 -274 c-11 -27 -20 -45 -20 -39 -1 14 31 96 36 92 2 -3 -5 -26
-16 -53z m-41 -89 c-6 -15 -13 -25 -16 -23 -2 3 1 17 7 32 16 34 23 27 9 -9z
m-28 -57 c-7 -7 -12 -8 -12 -2 0 14 12 26 19 19 2 -3 -1 -11 -7 -17z m-45
-103 c-24 -51 -34 -55 -13 -4 13 30 25 49 31 49 2 0 -7 -20 -18 -45z m-50
-107 c-3 -8 -6 -5 -6 6 -1 11 2 17 5 13 3 -3 4 -12 1 -19z m-83 -182 c-10 -20
-21 -36 -25 -36 -4 0 2 18 14 39 27 49 34 47 11 -3z m-64 -146 c0 -5 -2 -10
-4 -10 -3 0 -8 5 -11 10 -3 6 -1 10 4 10 6 0 11 -4 11 -10z"/>
<path d="M2669 3160 c-18 -15 -20 -19 -8 -20 23 0 78 -56 97 -98 10 -24 18
-80 22 -157 5 -99 10 -126 28 -155 12 -19 22 -42 22 -50 0 -9 24 -40 54 -69
43 -43 59 -52 82 -49 39 4 42 31 7 67 -41 41 -108 174 -128 251 0 3 -6 21 -12
40 -6 19 -17 64 -24 99 -13 65 -37 104 -89 141 -28 20 -28 20 -51 0z"/>
</g>
</svg>
